<?xml version="1.0" encoding="UTF-8"?>
<!DOCTYPE svg PUBLIC "-//W3C//DTD SVG 1.1//EN" "http://www.w3.org/Graphics/SVG/1.1/DTD/svg11.dtd">
<!-- Creator: CorelDRAW 2021 (64-Bit) -->
<svg xmlns="http://www.w3.org/2000/svg" xml:space="preserve" width="67.4703mm" height="47.1763mm" version="1.1" style="shape-rendering:geometricPrecision; text-rendering:geometricPrecision; image-rendering:optimizeQuality; fill-rule:evenodd; clip-rule:evenodd"
viewBox="0 0 1382.69 966.8"
 xmlns:xlink="http://www.w3.org/1999/xlink"
 xmlns:xodm="http://www.corel.com/coreldraw/odm/2003">
 <defs>
  <style type="text/css">
   <![CDATA[
    .fil1 {fill:#0A4979}
    .fil3 {fill:#0B4875}
    .fil5 {fill:#0C4472}
    .fil2 {fill:#0D4E81}
    .fil4 {fill:#2F9CDD}
    .fil0 {fill:#FCFDFB}
   ]]>
  </style>
 </defs>
 <g id="Layer_x0020_1">
  <metadata id="CorelCorpID_0Corel-Layer"/>
  <g id="_3037952685120">
   <g>
    <path class="fil0" d="M787.5 208.3c0.73,-2.27 1.74,-5.72 2.62,-7.89l3.25 -5.44 20.32 60.67 -41.58 -0.52 15.39 -46.82zm-23.97 71.02l57.39 0.23c4,5.78 9.2,25.15 10.66,33.49 8.59,0.01 21.89,1.51 29.76,-1.45 0.73,-8.7 -21.13,-63.57 -26.02,-75.93 -5.56,-14.07 -22.48,-67.83 -28.28,-75.89l-29.5 0.23c-4.82,7.54 -52.03,148.01 -52.21,153.05l28.55 -0.34 9.65 -33.4z"/>
    <path class="fil0" d="M878.3 312.82l29.31 0.01c-0.34,-22.23 2.25,-141.9 -1.21,-151.58 -6.23,-2.57 -19.57,-1.99 -28.39,-0.92l0.3 152.48z"/>
   </g>
   <g>
    <path class="fil1" d="M410.29 586.44c-7.45,2.62 -12.02,11.49 -5.8,19.39 5.01,6.37 18.75,4.43 27.78,4.44 68.76,0.06 430,1.89 438.43,-1.55 8.82,-3.59 8.49,-15.64 3.71,-19.84 -6.67,-5.87 -78.68,-2.81 -89.92,-2.8 -52.32,0 -368.5,-1.66 -374.2,0.35z"/>
    <path class="fil1" d="M420.12 534.46l433.77 0.01c12.44,0.01 23.44,0.72 23.63,-11.92 0.21,-13.87 -12.6,-12.35 -23.63,-12.35l-406.01 0.06c-10.12,0 -36.1,-2.69 -42.33,2.89 -4.02,3.6 -9.71,21.32 14.57,21.32z"/>
    <path class="fil1" d="M420.12 458.92l197.8 -0.04c7.52,0 12.9,0.47 16.54,-4.74 4.72,-6.76 1.06,-13.35 -1.86,-17.2 -5.68,-4.16 -182.7,-2.3 -214.22,-2.23 -23.42,0.05 -24.23,24.21 1.74,24.21z"/>
   </g>
   <g>
    <path class="fil2" d="M690.74 847.05l77.14 116.66 33.39 -0.82 0.1 -161.03 -30.48 0.37 0.99 114.55c-4.93,-4.83 -15.9,-23.99 -19.2,-29.2l-58.41 -85.92 -32.5 0.75 -0.32 161.02 30.66 -0.49 -1.36 -115.89z"/>
    <path class="fil2" d="M177.93 904.26c0.01,-20.97 2.49,-38.52 23.55,-38.09 22.99,0.46 21.82,20.48 21.8,41.57 -0.01,18.51 0.82,37.11 -0.75,55.56l29.72 0.43 -0.17 -42.11c-0.03,-22.6 -3.76,-50.77 17.51,-54.82 20.13,-3.83 28.42,8.24 28.43,27.06l-0.13 69.88 28.88 -0.06 -0 -33.38c-0.01,-40.66 6.78,-89.01 -41.99,-88.91 -23.3,0.05 -27.29,7.7 -38.17,17.95 -10.55,-10.02 -12.82,-17.84 -34.65,-18.21 -20.71,-0.36 -26.45,7.13 -34.08,18.51l-2.4 -17.01 -26.4 -0.29 0.18 121.42 28.85 -1.14 -0.18 -58.35z"/>
    <path class="fil2" d="M0.47 913.19c-7.7,52.68 80.94,70.26 114.49,34.65 11.64,-12.36 13.56,-35.06 7.7,-49.63 -14.16,-35.22 -65.4,-25.59 -83.34,-41.83 -8.82,-7.98 -7.46,-32.07 19.91,-33.46 31.45,-1.59 30.83,15.68 36.43,24.55l27.22 0.25c-2.64,-22.68 -7.72,-32.57 -22.76,-41.72 -13.62,-8.29 -34.97,-9.81 -52.57,-7.1 -32.77,5.05 -57.75,38.58 -36.75,72.2 16.38,26.22 75.28,19.51 83,40.06 7.87,20.93 -11.62,29.23 -29.37,29.21 -21.6,-0.02 -30.29,-6.36 -33.82,-26.89l-30.13 -0.31z"/>
    <path class="fil2" d="M1233.95 899.1c2.27,-16.6 15.87,-47.94 22.33,-66.32l21.48 66.26 -43.81 0.06zm-10.59 25.72l63.87 0.43 14.38 38.15 33 0.43 -60.77 -161.89 -34.76 0.36c-7.38,10.05 -24.66,64.43 -30.75,79.78 -10.08,25.39 -22.4,56.22 -30.28,81.58l31.55 -0.38 13.76 -38.46z"/>
    <path class="fil2" d="M426.25 906.61c-0.23,17.83 -1.61,26.2 -12.97,32.37 -8.75,4.75 -24.34,6.17 -31.87,0.54 -10.33,-7.73 -6.63,-22.36 6.83,-27.03 9.21,-3.2 27.77,-4.87 38.01,-5.87zm-47.77 -27.88c7.68,-11.13 8.28,-17.03 27.52,-15.63 14.1,1.03 19.33,7.07 19.49,22.07 -13.48,7.22 -38.52,4.74 -53.96,10.36 -46.9,17.08 -22.92,89.36 37.47,67 10.27,-3.8 10.64,-8.91 16.88,-12.59l1.23 13.5 27.35 -0.57c1.65,-17.83 0.06,-46.32 0.17,-65.57 0.13,-22.04 -1.61,-37.04 -16.52,-47.46 -21.32,-14.91 -80.34,-14.17 -86.64,29.39l27.01 -0.5z"/>
    <path class="fil2" d="M854.18 914.68c-9.77,-59.17 52.93,-63.61 58.14,-20.51 7.12,58.9 -51.26,62.16 -58.14,20.51zm-31.47 0c3.26,35.94 32.48,55.82 71.16,50.9 34.75,-4.42 54.15,-32.64 48.93,-73.49 -9.38,-73.42 -128.58,-70.92 -120.09,22.59z"/>
    <path class="fil2" d="M1123.52 891.47l-52.73 0.33c6.52,-43.83 53.83,-31.47 52.73,-0.33zm2.78 36.54c-7.83,11.77 -17.38,18.68 -35.73,13.47 -13.65,-3.88 -18.51,-15.01 -20.25,-30.63l82.96 -0.37c10.75,-83.03 -96.55,-92.84 -111.65,-23.03 -19.62,90.68 99.96,101.42 111.18,40.12l-26.52 0.43z"/>
    <path class="fil2" d="M955.16 867.41l17.16 -0.03c0.09,71.11 -11.09,103.85 56.45,96.54l0.44 -23.6c-21.29,-1.74 -26.84,2.19 -26.91,-22.09 -0.05,-16.51 0.42,-33.63 -0.31,-50.55l26.97 -0.19 0.14 -24.11 -26.87 -0.59 -0.92 -33.5 -28.95 0.32 -0.36 33.51 -17.14 0.61 0.32 23.69z"/>
    <path class="fil2" d="M567.85 867.3l16.41 0.73c-1.48,71.74 -9.61,101.95 56.49,95.45l-0.81 -24.2c-31.96,2.61 -27.01,-6.34 -26.13,-71.84l26.36 -0.12 0.18 -23.93 -26.64 -0.85 0.34 -33.41 -30.03 -0.28 0.19 34.24 -17.2 -0.06 0.83 24.27z"/>
    <polygon class="fil2" points="1353.1,963.68 1382.6,962.88 1382.69,801.96 1353.12,801.8 "/>
    <path class="fil2" d="M512.12 963.27c-1.33,-17.27 -1.74,-48.95 -0.31,-66.04 1.82,-21.74 17.04,-26.57 40.12,-26.42l0.25 -28.92c-33.73,-1.54 -30.81,5.75 -41.36,18.87l-1.31 -18.15 -27.26 -0.37 0.27 121.43 29.59 -0.4z"/>
   </g>
   <g>
    <path class="fil3" d="M878.01 160.34c8.82,-1.08 22.16,-1.65 28.39,0.92 3.46,9.67 0.86,129.35 1.21,151.58l-29.31 -0.01 -0.3 -152.48zm-124.13 152.38l-28.55 0.34c0.18,-5.04 47.39,-145.51 52.21,-153.05l29.5 -0.23c5.8,8.06 22.72,61.82 28.28,75.89 4.89,12.36 26.75,67.23 26.02,75.93 -7.87,2.97 -21.17,1.47 -29.76,1.45 -1.47,-8.34 -6.66,-27.71 -10.66,-33.49l-57.39 -0.23 -9.65 33.4zm30.68 -207.81c-34.17,12.71 -31.93,12.71 -44.91,-0.78 -14.61,-15.18 -20.37,-9.08 -38.45,10.67 -13.99,15.29 -28.98,25.13 -16.54,40.86 4.35,5.51 12.61,9.81 10.06,20.15 -2.01,8.15 -6.69,19.42 -10.72,24.39 -10.14,3.4 -24.91,-2.62 -30.7,5.46 -4.02,5.62 -3.5,23.08 -3.54,32.34 -0.17,45.09 -2.57,35.08 34.08,39.4 2.68,4.13 10.55,25.97 11,31.75 -4.91,7.54 -18.64,15.29 -14.38,29.02 2.25,7.25 15.37,20.04 20.1,25.4 32.3,36.55 31.68,12.81 50.95,0.23l33.14 10.77c5.98,29.91 -13.15,38.13 36.27,38.07 47.4,-0.06 31.9,-0.06 37.98,-37.54 38.32,-16.62 32.48,-12.6 47.82,2.83 16.17,16.26 32.16,-11.38 45.78,-25.55 13.42,-13.95 16.77,-20.14 1.21,-35.44 -12.58,-12.37 0.93,-21.54 4.21,-39.27 34.76,-1.96 35.59,3.27 35.51,-36.16 -0.1,-47.32 -2.69,-38.13 -33.4,-40.74 -3.98,-5.34 -7.38,-15.41 -9.97,-22.36 -4.07,-10.93 1.86,-14.14 7.32,-20.75 6.95,-8.41 9.81,-13.11 2.02,-23.39 -4.63,-6.11 -11.74,-14.71 -15.96,-18.68 -10.77,-10.13 -23.6,-30.6 -38.9,-12.56 -15.37,18.13 -14.46,11.38 -32.44,5.78 -4.67,-1.46 -8.64,-2.32 -12.94,-4.37 -5.37,-34.04 8.38,-37.66 -36.5,-37.72 -44.83,-0.06 -35.04,0.59 -38.09,38.23z"/>
    <path class="fil3" d="M326.72 324.3c21.45,-2.49 57.09,7.26 57.94,-22.09 0.83,-28.86 -34.07,-21.27 -57.02,-22.94 -21.9,0.4 -44.9,-3.23 -45.36,21.16 -0.52,27.48 22.87,20.39 44.45,23.87z"/>
    <path class="fil3" d="M327.67 189.16c21.71,-3.87 56.58,7.12 56.57,-22.3 -0.01,-29.2 -34.03,-19.92 -56.61,-22.51 -22.05,0.06 -45.77,-2.79 -45.58,22.6 0.18,24.96 24.42,20.35 45.63,22.21z"/>
   </g>
   <path class="fil4" d="M410.29 586.44c5.7,-2.01 321.88,-0.35 374.2,-0.35 11.24,-0 83.24,-3.06 89.92,2.8 4.78,4.2 5.11,16.25 -3.71,19.84 -8.44,3.43 -369.67,1.61 -438.43,1.55 -9.03,-0.01 -22.77,1.93 -27.78,-4.44 -6.22,-7.9 -1.65,-16.77 5.8,-19.39zm9.83 -51.97c-24.28,0 -18.6,-17.71 -14.57,-21.32 6.24,-5.58 32.21,-2.89 42.33,-2.89l406.01 -0.06c11.03,0 23.84,-1.52 23.63,12.35 -0.19,12.63 -11.19,11.93 -23.63,11.92l-433.77 -0.01zm-1.74 -99.75c31.51,-0.07 208.54,-1.93 214.22,2.23 2.93,3.85 6.58,10.44 1.86,17.2 -3.64,5.21 -9.03,4.74 -16.54,4.74l-197.8 0.04c-25.97,0 -25.15,-24.16 -1.74,-24.21zm366.18 -329.81c3.05,-37.64 -6.73,-38.29 38.09,-38.23 44.88,0.06 31.13,3.68 36.5,37.72 4.3,2.05 8.27,2.92 12.94,4.37 17.98,5.6 17.06,12.35 32.44,-5.78 15.3,-18.04 28.13,2.43 38.9,12.56 4.22,3.97 11.33,12.57 15.96,18.68 7.79,10.28 4.93,14.98 -2.02,23.39 -5.46,6.61 -11.39,9.82 -7.32,20.75 2.59,6.95 5.99,17.03 9.97,22.36 30.71,2.61 33.3,-6.58 33.4,40.74 0.09,39.43 -0.75,34.2 -35.51,36.16 -3.28,17.73 -16.78,26.9 -4.21,39.27 15.56,15.3 12.21,21.49 -1.21,35.44 -13.62,14.17 -29.61,41.81 -45.78,25.55 -15.34,-15.43 -9.5,-19.45 -47.82,-2.83 -6.08,37.49 9.42,37.48 -37.98,37.54 -49.42,0.06 -30.29,-8.17 -36.27,-38.07l-33.14 -10.77c-19.28,12.58 -18.65,36.32 -50.95,-0.23 -4.73,-5.35 -17.85,-18.14 -20.1,-25.4 -4.26,-13.73 9.48,-21.48 14.38,-29.02 -0.45,-5.78 -8.32,-27.61 -11,-31.75 -36.65,-4.31 -34.25,5.7 -34.08,-39.4 0.04,-9.25 -0.49,-26.72 3.54,-32.34 5.79,-8.07 20.56,-2.05 30.7,-5.46 4.03,-4.97 8.71,-16.25 10.72,-24.39 2.55,-10.34 -5.71,-14.64 -10.06,-20.15 -12.44,-15.73 2.56,-25.57 16.54,-40.86 18.07,-19.76 23.84,-25.85 38.45,-10.67 12.99,13.5 10.74,13.5 44.91,0.78zm-456.94 39.44c22.59,2.59 56.6,-6.69 56.61,22.51 0.02,29.41 -34.85,18.43 -56.57,22.3l-0.04 90.11c22.96,1.67 57.85,-5.92 57.02,22.94 -0.84,29.34 -36.49,19.6 -57.94,22.09 1.67,13.79 0.43,138.41 0.45,163.55 0.02,31.69 -3.74,141.35 3.5,163.88 7.73,24.08 20.21,36.5 36.56,46.97 22.29,14.28 42.84,12.15 71.98,12.27 55.51,0.23 111.05,0.01 166.57,0.04 29.31,0.01 309.41,2.44 330.77,-1.68 24.1,-4.65 41.09,-17.61 51.06,-32.35 16.14,-23.86 15.44,-34.17 15.44,-67.68l-0.09 -248.18c0.19,-15.98 5.4,-19.75 11.51,-30.45 4.85,-8.49 8.69,-17.87 12.71,-28.91 25.47,-69.87 7.59,-138.34 -32.56,-195.76 -10.15,-14.52 -5.47,-15.52 -7.13,-34.5 -1.08,-12.26 -5.63,-23.04 -10.55,-31.13 -26.72,-43.91 -62.54,-40.14 -126.5,-40.31l-416.42 -0.05c-30.38,-0 -47.73,-0.73 -70.09,13.3 -15.47,9.7 -28.65,26.4 -34.54,48.85 -3.36,12.82 -3.28,67.68 -1.74,82.19z"/>
   <path class="fil5" d="M772.11 255.11l41.58 0.52 -20.32 -60.67 -3.25 5.44c-0.88,2.16 -1.9,5.61 -2.62,7.89l-15.39 46.82z"/>
  </g>
 </g>
</svg>
